<svg version="1" xmlns="http://www.w3.org/2000/svg" width="533.333" height="533.333" viewBox="0 0 400.000000 400.000000"><path d="M191.5.9c-.3.6 3.1.8 8.5.6 7.4-.4 9-.2 9 1 0 .8.7 1.5 1.5 1.5 2 0 1.9-2.6-.1-3.4-2.5-1-18.2-.7-18.9.3zM172 2.1c-7.9 1.2-13.9 2.7-11.2 2.8 1.8.1 2.2.7 2.2 3.1 0 3.5 1 3.8 3.5 1 1-1.1 1.3-2 .7-2-.7 0-1.2-.7-1.2-1.6 0-1.2.7-1.5 3-1.2 1.7.3 3 .2 3-.2s1.9-.7 4.2-.8c2.3-.1 4.7-.7 5.2-1.2 1.2-1.2-1.3-1.2-9.4.1zM184.8 1.7c.6.2 1.8.2 2.5 0 .6-.3.1-.5-1.3-.5-1.4 0-1.9.2-1.2.5zM218.2 4.7c.2 2 .9 3.8 1.6 4.1 1.1.3 1.1-1.5.3-7.1 0-.4-.6-.7-1.2-.7s-.9 1.5-.7 3.7z"/><path d="M225.2 6.7l.3 4.8h14c13.8.1 14 .1 14.1 2.3.1 1.3 1 2.9 2 3.7 1.6 1.3 1.7 1.4.2.9-1.6-.6-1.8.2-1.8 8 0 5.1.4 8.6 1 8.6s1 .5 1 1.1c0 .5-.4.7-1 .4-.5-.3-1.1 0-1.1.7-.5 3.7-.3 5.6.5 8.3.5 1.6 1.1 5.5 1.5 8.5.6 5.1.8 5.5 3.4 5.8 2.6.3 2.7.6 2.7 5.8 0 4.3-.3 5.4-1.6 5.4s-1.5.7-1 3.2c.4 1.8 1.2 3.9 2 4.6 1.3 1.3 1.1 3.2-1.2 12.4-.6 2.3-.6 3.8 0 4 .9.3 1.6 17.2.8 19.8-.4 1.3.9 1.5 7.8 1.5 4.5-.1 8.2.3 8.2.7 0 .4-3.1.8-6.9.8-3.9 0-7.3.4-7.6 1-.4.6 2 1 6.3 1 5.6 0 7.1.3 7.6 1.6 1 2.6 0 2.9-8 2.9-6.9 0-7.3.1-6.8 2 .9 3 3.3 5.3 5.7 5.7 3.6.5 3.1 3.2-.8 4.6-1.9.7-5.9 3.5-8.8 6.2-5.2 4.7-5.4 4.8-5 2.2.4-2.1-.2-1.6-2.5 2.3-1.6 2.7-4 6-5.3 7.2-3.3 3-6.1 6.9-7.9 11-.5 1.3-1.4 2.3-1.9 2.3-1.4 0-6.3 9-5.7 10.5.2.7-.2 1.9-1 2.6-1 .8-1.4 2.4-1.2 4 .3 1.7 0 2.5-.6 2.2-.5-.4-.7.1-.3 1.1.5 1.1-.5 4.1-2.5 7.8-2.8 5.2-3.4 5.8-4.3 4.3-1.8-3.2-14.7-18.9-19.9-24.2-3.5-3.7-5.2-4.9-5.8-4-.5.8-.8.7-.8-.5 0-2.8 1.7-3 6.5-.9 4.2 1.9 5.1 3.3 4.7 7.2-.1.3 1.2 1.9 2.8 3.4 2.9 2.7 3 2.8 4.9 1.1 1.1-1 1.8-2.3 1.5-3-.3-.7.7-1.8 2.1-2.4 1.4-.6 2.5-1.6 2.5-2.1 0-1.8 4.5-5.8 7.3-6.5 1.5-.4 2.5-1.1 2.1-1.7-.3-.6.2-1.9 1.3-3.1 1-1.1 1.7-2.2 1.5-2.4-.1-.2.4-1.5 1.3-2.7.8-1.3 1.6-4.4 1.8-6.9.1-2.5.8-5.2 1.5-6 1-1.2.7-1.7-1.4-2.6-1.6-.8-3.1-.9-4.3-.3-2.6 1.4-9.9 2.1-10.3.9-.2-.5-1.9.6-3.8 2.5-2.8 3-3.8 3.4-5.7 2.6-1.4-.5-2.2-.5-1.9 0 .8 1.2-2.1 3.4-3.4 2.6-.5-.3-1-.2-1 .2 0 .5-1.5 1.7-3.2 2.8-1.8 1-3.5 2.1-3.8 2.5-.9 1.2-17.5 9-20 9.4-1.4.2-3.3.7-4.2 1.1-1.2.5-2 .2-2.4-.9-.3-.9-2.3-2.1-4.4-2.7-2.6-.8-3.7-1.6-3.3-2.6.6-1.6-2.7-4.4-4.1-3.6-.5.3-.6 0-.4-.8.3-.8 1.1-1.3 1.7-1.2.6.2 1.1-.4 1.1-1.2 0-2-1.4-1.9-3.5.1-.8.9-2.4 1.4-3.5 1.1-1.1-.3-2.4.1-3.1.9-1.6 1.9-2.6 1.8-2.6-.4 0-2.4 1.6-4.2 3.8-4.2 1.2 0 1.6-.5 1.3-1.5-.5-1.2.3-1.4 4.3-1 2.6.3 5.3 1.2 5.9 2 1.3 1.7 3.4 2 3.4.5 0-.6-.7-1-1.5-1s-1.2-.6-.9-1.4c.3-.9-.5-1.6-2.3-2.1-1.5-.4-2.2-1-1.6-1.2.9-.3.3-2.3-1.9-6.6-1.7-3.4-3.5-6.5-4.1-6.8-.5-.4-.7-1.2-.3-1.8.4-.6-.2-3.2-1.3-5.7-1.2-2.6-2.1-5.4-2.2-6.3 0-1-.2-1.1-.6-.4-.2.7-.9 1.3-1.4 1.3-.6 0-.8-.4-.5-.9.4-.5 0-1.2-.6-1.5-1-.5-1-.7 0-1.2 2-1 1.3-2.7-.9-2.1-1.7.5-2 .2-1.6-1.4.3-1.2 0-1.9-.8-1.9-1.8 0-2.5-2.3-2.8-9.3-.1-3.6-.6-5.7-1.4-5.7-.6 0-1.1 1-1.1 2.2.1 1.3.1 4.7 0 7.6-.2 4.5-.5 5.3-1.9 5-2.4-.4-4.1-12.6-2.1-14 .9-.5.6-.8-1-.8-2.4 0-2.4.1-1.9 8.5l.5 8.5h-3c-2.6 0-2.9-.3-2.5-2 .3-1.1.1-8-.3-15.3-1.4-21.6-2.1-38.1-2.3-58l-.2-18.7 5-.1c2.8-.1 5.6-.1 6.3 0 .9.2 1.1-.9.8-3.6-.2-2.1-.5-3.9-.5-4-.2-.4-13.2 4.8-18.9 7.5l-6.3 3-.5 7.9c-.2 4.3-.7 8.6-1 9.5-.3 1-.1 1.8.4 1.8.6 0 .7 1.4.3 3.2-.5 2.6-.6 11.3-.1 11.3 0 0 .3 12.3.5 27.2l.5 27.3h-3.4c-5.4 0-6.6-.8-6.6-4.6 0-2.4-.4-3.4-1.6-3.4-1.3 0-1.5.7-.9 4 .4 2.3.3 4-.3 4-1.8 0-4.4-4-3.9-6 .3-1.3 0-2-.9-2-1 0-1.4 1.2-1.4 4 0 3.7-.2 4-2.7 4-1.6 0-3.3-.4-3.9-.8-1.1-.6-1.9-3.9-1.4-5.2.1-.3.4-1.7.6-3.3.4-2.3.1-2.7-1.8-2.7-1.3 0-3-.5-3.8-1-1.1-.7-.8-1 1.6-1 2.3 0 3.3-.5 3.7-2 .3-1 0-2.1-.6-2.3-.6-.2-1.6-2.1-2.3-4.3l-1.3-3.9.3 5.2c.2 3.4-.1 5.3-.8 5.3-1.5 0-3.6-4.8-3.6-8.3 0-1.6-.4-2.6-1-2.2-.6.4-.8 1-.5 1.4.2.5.5 3.1.6 6 .1 2.8.7 5.1 1.2 5.1.6 0 .3.8-.5 1.7-1.1 1.2-1.5 3.2-1.2 6 .3 3.5.1 4.1-1.2 3.6-.9-.3-2.8-.6-4.2-.7-2.4-.1-4.6-2.6-2.3-2.6.6 0 1.1-1.1 1.1-2.5 0-2-.5-2.5-2.4-2.5-2.3 0-2.4.3-2.1 4 .3 3 0 4-1.1 4-2.1 0-2.8-2.7-1.6-5.6 1.2-2.4 1.1-2.5-2.5-2.4-.5 0-.8.8-.9 1.8-.4 6.6-.2 6.3-3.7 6-3.1-.3-3.2-.5-2.9-4.1.3-3.4.1-3.7-2.2-3.7-2.3 0-2.4.3-1.9 3.5.4 2.3.2 3.5-.6 3.5-.6 0-1.1-1.6-1.1-3.5 0-3-.3-3.5-2.4-3.5-2.3 0-2.4.3-1.9 3.5l.6 3.5h-8.2l.6-3.5c.5-3.1.3-3.5-1.6-3.5-1.8 0-2.1.6-2.2 4.2 0 3.6-.2 3.9-.9 2-.5-1.2-1.4-2.2-2-2.2-1.3 0-9.3 16.6-13.9 28.7C7.5 144 1 171 1 178.4c0 .5 6.1.7 14.1.4 7.7-.3 13.5-.2 12.9.2-.7.4 10.8.9 25.6 1 14.8.1 32.1.5 38.4.8 6.3.4 15.7.6 20.7.4l9.3-.3-.1-8c-.1-8.6-1.3-11.1-5-10.4-1.1.2-2.2-.2-2.6-1.1-.3-.9-1.3-1.2-2.3-.9-1.1.4-2.2-.1-2.8-1-.5-.9-1.2-1.6-1.5-1.6-.4.1-.8.1-.9 0-2.7-.8-5.4-.7-6.5.2-.7.7-2.7 1.3-4.3 1.4-1.7.2-3.7.8-4.5 1.5-1.5 1.2-2 .4-1.6-2.2 0-.4-.6-.5-1.4-.2-.8.3-2 .2-2.7-.2-.9-.6-.6-1 1-1.4 2.1-.5 3.2-2.5 1.5-2.5-.5 0-1.4-.4-2.2-.9-1.2-.8-1.1-1.1.5-1.6 1-.4 2.4-.5 2.9-.1.6.3 3 .6 5.5.7 2.4.1 4.6.7 4.8 1.3.2.6.8.8 1.3.5.6-.3.2-1.2-.8-2-1.7-1.2-1.7-1.3 0-1.4.9 0 1.7-.5 1.7-1.1 0-.6 1.2-.9 2.8-.8 1.5.2 3.3 0 4-.4.8-.5 1.2-.2 1.2.8s.5 1.3 1.1.9c2.4-1.5 6.9-1.4 6.9.1 0 .8.7 1.5 1.5 1.5 1.2 0 1.5-1.3 1.5-6 0-6.1-1.1-7.6-3.4-4.4-.9 1.2-1.7 1.3-3.6.5l-2.5-1 2.3-.7c1.2-.3 2.2-1.2 2.2-1.9 0-.9 1.5-1.3 4.5-1.3 4.7.1 6.8 1.4 4.1 2.4-1.1.4-1.6 1.9-1.6 4.6 0 3.9.1 4 3 3.6 1.7-.3 3-.1 3 .4 0 .4-1.3.8-3 .8-2.4 0-3 .4-3 2.1 0 2.4 2.6 5.3 4 4.4.5-.3 1-.2 1 .4 0 .5-.6 1.2-1.2 1.4-1 .4-1 .6 0 .6.6.1 1.2.7 1.2 1.5s.8 1.7 1.8 2.1c1.5.6 1.4.8-.6 1.6-1.3.5-2 1.3-1.7 1.9.3.5.1 1-.4 1-.6 0-1.1-.7-1.1-1.6 0-.8-.5-1.2-1.1-.8-.7.4-.9 3.6-.5 9.3.3 4.7.5 8.6.6 8.6 0 .1 1.3.2 2.9.3 2.3.2 3-.3 3.5-2.3.4-1.4 1.4-2.5 2.2-2.5 1.2 0 1.5.7 1.2 3.1l-.5 3.1 5.1-.6c4.8-.5 29.7-.9 48.4-.7 9.2.1 10.1 1 5.5 5.2-1.5 1.3-2.1 1.6-1.4.6 1.2-1.4 1.1-1.7-.3-1.7-1.1 0-1.6.9-1.6 2.9 0 1.6-.9 4.9-1.9 7.3l-1.9 4.5-22.2-.5c-14.9-.3-22.1-.1-21.6.6.3.5 5.3 1 11.3 1.1 11.6.2 15.6.8 14.7 2.2-.3.5 3.1.7 7.6.5 4.4-.2 8-.2 8 0 0 .1-.4 1.4-1 2.9-.9 2.3-1.5 2.6-5.7 2.5-2.7 0-11.5-.1-19.8 0-14 0-29.5-.3-61.2-1.4-7.3-.2-13.7-.7-14.3-1.1-.6-.4-1.7-.1-2.5.5-1.7 1.4-8.5.5-8.5-1.1 0-.5-.9-.4-2 .3-1.7 1.1-2.2 1-3-.1-.6-1.1-1.2-1.2-2.2-.4-.7.6-3.5.9-6.3.8-2.7-.2-10.3-.5-16.7-.8-6.5-.3-12.1-.8-12.5-1-.5-.3-6.9-.7-14.3-.9-12.5-.3-13.5-.2-13.8 1.5-.3 1.5 0 1.8 1.7 1.2 1.3-.4 2.1-.2 2.1.6 0 .9.3.9 1.5-.1.8-.7 2-.8 2.7-.4.7.5 2.1.7 3 .6 1.9-.3 3.4 3.7 2.4 6.4-.4 1-.1 1.4.6 1.1.8-.2 1.2-1.7 1-3.5-.2-1.8.1-3.2.7-3.2s1.1.4 1.1 1c0 .5.7 1 1.5 1s1.5-.4 1.5-.9c0-1.6 3.8-1.9 6.4-.6 1.6.9 2.8 1 3.2.4.4-.6 1.1-.6 2 .2 1.1.9 1.7.9 2.9-.1s1.5-1 1.5 0c0 .9.9 1 3.3.6 7.4-1.6 7.7-1.6 8.3-.1.6 1.4.8 1.3 2-.2 1.3-1.7 1.5-1.7 2.8 0 .8 1 1.6 1.4 1.7 1 .2-.4 5.8-.6 12.4-.3l12 .5.3 4.2.3 4.3h-5.3c-4.1.1-4.9.3-3.5 1.1 1 .6 3.2 1.1 5 1.1 1.7.1 3.7.7 4.5 1.4 1.3 1.4 4.2.9 4.2-.7 0-.5.8-.9 1.8-1 1.1-.1.8-.4-.8-.8-2.2-.6-2.5-1.2-2.5-5.1v-4.5l17.8-.1c10.4 0 17.7.4 17.7.9s.6.4 1.4-.2c1-.9 1.6-.9 2.1-.1s1.1.8 2.1-.1c1-.8 1.8-.9 2.5-.2.6.6 2.6.7 5.2.2 2.3-.4 4.9-.3 5.9.2 1 .6 1.9.5 2.3-.1.4-.6 1.3-.7 2.4-.1 1 .6 2.3.6 3.1.1.8-.5 1.9-.6 2.4-.2.6.3 2.3.5 3.8.4 1.6-.1 2.8.3 2.8.9 0 .8.4.8 1.3.1.9-.8 3.1-.9 6.8-.3 3.1.6 5.8.5 6.3 0 .6-.5 1.7-.2 2.8.8 1.1 1 1.8 1.1 1.8.5 0-1.8 3-1.4 3.7.5.5 1.4.8 1.3 1.5-.6 1.1-3 2.8-1.7 2.3 1.7-.2 1.5-.7 4.8-1 7.5-.4 2.6-1.1 4.5-1.6 4.2-.5-.4-.7-1.1-.4-1.6.4-.5-.3-.9-1.4-.9-1.2 0-2.1.5-2.1 1.1 0 .6-.5.7-1.2.2-1.8-1-3.8-1.3-3.8-.4 0 .4-1.8.7-4 .7-3.9-.1-5.8 1.3-2.2 1.5.9.1 3.3.4 5.2.6 1.9.2 5.1.4 7 .6 2.9.2 3.4.6 3.2 2.2-.6 3.2-1.3 3.4-7.5 2.8-4.3-.4-5.7-.9-5.3-1.9.3-.8-.1-1.4-.9-1.4-.9 0-1.2.6-.9 1.5.7 1.9-4.2 2-23.1.5-31.4-2.4-40-3-51.5-3.5-13.3-.5-19-1.3-19-2.5 0-.5 1-1.1 2.3-1.3 1.2-.2-.5-.4-3.8-.4s-4.9.2-3.5.4c1.4.3 2.9.9 3.5 1.4.6.6-2.2.7-7.5.4-4.7-.3-16.8-1-27-1.5-10.2-.6-21.6-1.3-25.3-1.6l-6.8-.6.3 3.8.3 3.9 5.5.6 5.5.6-5.4.1-5.3.2.7 4.7c.4 2.7 1.5 7.5 2.5 10.8 1 3.3 2.8 9.4 4 13.5 1.2 4.1 4 11.8 6.2 17.1l4.1 9.6 7.1-.5c3.9-.2 7.8-.8 8.7-1.3 2.2-1.1 4.7-29.8 2.7-31-.7-.5-.8-.9-.3-1 .6 0-.8-.7-3-1.4l-4-1.4 6 .3c3.3.2 6.1.8 6.3 1.5.2.6 1.3 1.1 2.5 1.2 2 .1 2 .2-.3.8-2.3.6-2.5 1.3-3.7 11.1-.6 5.8-1.2 12.6-1.2 15.1-.1 4.4.1 4.7 3 5.3 1.7.3 4.9.6 7.1.6 3.9 0 8.8 1.9 12.1 4.8 1.8 1.6 2.3 7.1.8 8.8-1.5 1.6-1.8 9.4-.4 9.4.7 0 6.6-2.5 13.1-5.6 6.4-3.1 15.1-7.1 19.2-8.9 9.9-4.3 16-7 24.7-11.1 4-1.9 7.5-3.4 7.7-3.4.3 0 6.3-2.7 13.3-6.1 7-3.4 14.8-7.1 17.3-8.2l4.5-2.2-3-.5c-1.6-.3-4.7-1.4-6.7-2.3-2.1-.9-4.8-1.7-6-1.7-1.3 0-3-.5-3.8-1.1-1.1-.7.6-.9 6-.5 9.1.8 17.8 2 18.5 2.8.3.3.1 1.8-.5 3.3-2.1 5.6 3 12.9 11.7 16.8 1.5.7 2.9 1.8 3.1 2.5.1.8-.1 1.1-.6.8-.4-.2-1.4 1.5-2 4-.9 3.2-1.9 4.7-3.7 5.4-1.4.5-2.5 1.4-2.5 2 0 .6-1.4.3-3.2-.7-1.8-1-4.3-1.8-5.6-1.9-1.9-.1-2.2.3-1.8 2 .7 2.7-3.7 7.8-8.4 10-4.4 2.1-9.4 4.9-10 5.8-.3.3-2.3.9-4.5 1.4-2.2.4-4.2 1-4.5 1.4-.9 1.2-10.4 2.6-13 2-1.4-.4-2.9-.4-3.5 0-1.4 1-9.2 1.9-10 1.2-.3-.3-2.3-.5-4.3-.4-3.5.3-3.8.1-5.5-4.2-2.5-6-4.1-7.3-7.6-5.9-2.1.8-3.5.7-5.5-.4-2.9-1.5-6-1-8.8 1.5-3.1 2.7-2.1 3.7 3 3.3 2.6-.2 5.3-.8 6-1.4.7-.6 1.2-.6 1.1-.1-.2.5.5 2.3 1.4 4.1 2.2 4.1 2.1 5.2-.1 7.2-1.1.9-2.4 2.5-3 3.7-.6 1.1-3 2.6-5.3 3.3-2.9.9-5.9 3-9.5 6.9-2.9 3.1-5.6 6.2-5.8 6.9-.3.7-.9 1.3-1.3 1.3-1.2-.1-4.9-3.4-5.6-5-.4-1.3-.6-1.2-.6.1-.1 1.5 10.1 11.9 16.4 16.6 3.6 2.8 5.1 2.9 6.5.3.8-1.5.8-2-.1-2-2 0 0-1.4 2.4-1.6 1.2-.2 1.6 0 1 .2-.7.3-1.3 1-1.3 1.6 0 .6.8.4 1.8-.5s3.2-1.7 5-1.9c3.7-.3 4.2-1.5.9-2.1l-2.2-.4 2.3-.2c1.2 0 2.2-.6 2.2-1.2 0-.5.5-.7 1.1-.4.5.4 1.8-.1 2.7-1.2.9-1 3.3-2 5.2-2.1 1.9-.2 4.1-.9 4.8-1.4.7-.6 1.5-.8 1.9-.4.3.3 1.5-.1 2.5-1.1 1.1-.9 1.8-1.1 1.8-.5 0 .7-.5 1.2-1.1 1.2-.5 0-.7.5-.4 1 .4.7 1.3.4 2.3-.7 2-2.1 7.2-5.6 7.2-4.8 0 1.1 4.2-1.7 10.8-7.3 12.4-10.5 15.2-12.3 28.5-18.6 7.3-3.5 14-7 14.7-7.8.8-.7 3.2-2.3 5.2-3.3 2-1.1 13.2-11.9 24.9-24s22-22.3 22.8-22.6c5.5-2.1 51.8 10.7 58.5 16.2.6.5 2.2 1.7 3.5 2.7 5 3.9 2.4 11.9-6.7 20.3-10 9.2-12.6 11.5-11.8 9.9.5-.8-.3-.2-1.8 1.4-1.4 1.6-2.6 2.5-2.6 2s-1.2.4-2.6 2.1c-1.4 1.6-2.2 2.3-1.8 1.5.5-.8-1-.1-3.1 1.6-2.2 1.7-5.5 3.9-7.2 4.8-1.8.9-3.3 2.1-3.3 2.6 0 .6-.8 1-1.9 1-1 0-2.4.7-3.1 1.5-.7.9-2.1 1.3-3.1 1-1.9-.6-7.3 1.7-8.5 3.6-.3.6-.1 1.5.6 1.9.8.5-1.3 3.3-6.8 8.9-4.4 4.6-8.1 8.5-8.2 8.9-.1.4-1.5 2.2-3.1 4-2.4 2.6-3 4.1-2.8 6.7.2 1.9 0 3.7-.4 4.1-.4.4-.2 1.2.3 1.9.5.6 1.2 2.9 1.6 5.1.3 2.1 1 4.7 1.5 5.6.5 1 1 3.5 1.2 5.7.1 2.1.5 3.7 1 3.4.4-.2.7.2.7 1s1.2 3.1 2.6 5.2c1.9 2.9 2.4 4.6 2 6.8l-.6 3 7.2-.6c16-1.3 43-9.9 62.4-19.8 34.8-17.9 67.8-50.1 84-82.1 3-6 3.4-7.7 3.4-14.6 0-11.3-1.8-27.8-4.5-41.9-1.4-7.3-2.1-13.7-1.8-15.9.4-2.6.3-3.5-.5-3-.7.4-1.5-.9-2.2-3.6-.6-2.4-2.7-9.1-4.6-15-3.3-10.1-3.4-11.1-2.4-17 .5-3.5 1.1-8.3 1.2-10.8.3-4 .7-4.7 3.8-6.2 1.9-1 4.6-1.7 6-1.6 4.3.2 6-1.1 6-4.7 0-4.7 2.5-6.5 9.4-6.5 4.8 0 5.7-.3 5.2-1.5-.3-.9-1.3-4.4-2.2-7.8-3.8-15-12-33.7-21.8-49.7l-5.1-8.4-.3 3.9c-.5 8.4-1.2 10.5-3.3 10.5-1.8 0-2-.4-1.5-3.8.4-2 .7-5.4.8-7.5.1-2.1.5-4 1-4.3.4-.3.8-.9.8-1.4 0-1.5-9.2-13-10-12.5-.5.3-1.1-.1-1.3-.7-.4-1-.8-.9-1.6.2-.8 1.2-1.1.7-1.1-2.3 0-2-.4-3.7-.9-3.7s-.7 1.7-.5 3.7c.2 2.1.5 6.5.8 9.7.3 3.3 1.1 6.3 1.8 6.7.7.4 1.1 2.3 1 4.1-.1 1.9.4 4.3 1.3 5.3 1.4 1.9 1.4 1.8 1.5-1.2 0-3.9 1.6-8.3 3-8.3 1.3 0 1.3 14.7 0 15.5-.6.4-.4 1.7.5 3.5 1.9 3.6 1.9 4.8 0 6.6-1.3 1.4-1.5 1.4-1.5 0 0-.9-.7-1.6-1.5-1.6s-1.2.6-1 1.2c.9 2.4-1.1 4.1-3.9 3.4-1.6-.4-2.4-1.1-2-1.8.4-.7.3-.8-.4-.4-1.7 1-1.5 2.6.4 2.6.8 0 1.3.4.9.9-.3.6-1.3 1-2.3 1-9.6-.2-16.9.5-18.6 1.6-2.1 1.6-2.3 1.5 4.6 1.6 1.6.1 2.6.5 2.3.9-.8 1.3 1.5 2.4 6 2.7 2.2.2 4.6.6 5.3.8.6.2 1.2-.3 1.2-1.2 0-.9.3-1.3.8-.9.4.4.7 1.3.7 1.9 0 1.5 2.5 1.7 4.3.4.9-.7 2.1-.1 4.2 2.4 1.6 1.9 2.9 3.8 3 4.2 0 .5 1 1.7 2.3 2.8 2 1.7 1.5 2.5-1.5 2-.4 0-.5.7-.1 1.7.4 1.3.1 1.2-1.6-.6-2.5-2.6-3.6-2.8-2.7-.7.3.8.1 1.5-.5 1.5s-.8.8-.5 1.7c.4 1 .4 1.4 0 1-.4-.4-1.3.1-2.1 1.1-1.3 1.5-1.4 1.5-.9 0 .2-.9-.2-1.9-.9-2.2-1.7-.6-2.9 1-1.9 2.6.5.8.2.9-1.1.5-1.7-.7-4.4 1.6-4.4 3.8 0 .5.4.2 1-.8 1.1-1.8 4.9-2.4 4.9-.7 0 .5-.7 1-1.5 1-.9 0-1.8.7-2.1 1.5-.7 1.7-3.4 2.1-3.4.4 0-.5-.5-.7-1-.4-.6.4-.8 1.1-.5 1.6.4.5-.5.9-1.8.9-2.8 0-4 2.7-2.4 5.6.9 1.7.9 1.7-.5.6-1.1-.9-1.8-1-2.3-.2-.4.7-1.6.5-3.6-.7-3.2-1.9-4-3.6-1.1-2.6 1.5.6 1.5.5.3-1.1-1.3-1.5-1.3-1.9-.1-2.6.8-.5 1.1-1.3.6-1.7-.5-.4-1.1-.3-1.3.3-.2.6-1.1 2-1.9 3-.9 1-1.2 1.3-.8.5.5-1.1.3-1.3-.9-.8-1 .4-1.7.2-1.7-.5s-.5-.7-1.4.1c-1.2 1-1.9.8-3.5-.8-1.1-1.1-2.7-1.8-3.6-1.5-1.1.4-1.5 0-1.5-1.7 0-2.1-.1-2.1-1.2-.6-1.1 1.5-1.8 1.6-4.8.6-1.9-.6-4.6-1.7-6-2.5-7.7-4.1-10-5.5-10-6.2 0-.4 2-3 4.5-5.7 2.5-2.8 4.6-5.7 4.6-6.5.5-5.7.4-7-.8-7-2.4 0-1.5-6.8 1.3-10.6 1.6-2 2.1-3.4 1.4-3.4-.9 0-1.1-1.9-.8-7.3.3-4.1.8-7.9 1.2-8.6 1.5-2.4 2.6.3 2.6 6.6 0 7.9.9 7.6 2.5-1 .9-4.8 1.5-6.2 2.8-6.1 3 .3 5.1-12 6.2-35.7.6-11.6.5-13.7-.8-14.2-1-.4-1.7.2-2 1.5-.3 1.1-1 1.7-1.5 1.4-.6-.3-1.3 0-1.5.6-.6 1.4-1-1.3-.8-5.2.1-1.8-.7-3-3.1-4.4-14.6-8.4-15.1-8.7-16-7.4-.4.7-.8 5.3-.8 10.2 0 8.7 0 8.8-2.2 8.2-1.3-.3-4.2-.6-6.6-.6h-4.3l.7-12.9.7-12.9-8.4-3.2c-4.6-1.8-12.8-4.3-18.2-5.7-8.1-2.1-10-2.3-11.3-1.2-1.3 1.1-1.8 1-2.5-.4-1.2-2.1-2.9-2.2-2.9-.2 0 .8-.4 1.5-.9 1.5s-1.2 1-1.4 2.2c-.4 1.9-.4 1.8-.6-.5-.2-4.6-1.8-6.7-5.2-6.7-3 0-3 .1-2.7 4.7zM133 15.9c0 .6-.4 1.3-1 1.6-.5.3-1-.1-1-.9 0-.9.5-1.6 1-1.6.6 0 1 .4 1 .9zm169.2 22.8c-.3 2.1-.7 3.2-.9 2.5-.4-1-.8-1-1.9-.1-1.2.9-1.4.5-1.4-2.5 0-3.5 1.3-4.9 2.3-2.4.3.8.6.5.6-.5.1-1 .5-1.6.9-1.3.4.3.6 2.2.4 4.3zm11.6 15.2c-.2 2.4-.8 3.5-2 3.7-1.4.2-1.8-.5-1.8-3.5s.4-3.7 2-3.7c1.8 0 2 .6 1.8 3.5zm-13.9-1.2c.1-2.9 2.1-1.9 2.1 1 0 3.5-1.9 6.9-2.1 3.8v-2l-.9 2c-.6 1.5-.9.9-.9-2.5s.3-4 .9-2.5c.7 1.7.9 1.7.9.2zM286 63.5c0 5.4 0 5.5-3 5.5-2.9 0-3-.1-3-4.8 0-5.5.4-6.2 3.7-6.2 2.1 0 2.3.4 2.3 5.5zm-8.5.7c-.4 2.9-.8 5.4-.9 5.5 0 0-2.8.3-6.1.5l-6 .3-.3-4.4c-.5-6.7-.1-7.1 7.4-7.1h6.6l-.7 5.2zm23.5 6.2c0 1.9-.4 3.8-1 4.1-.5.3-1 0-1-.7 0-.9-.3-.9-1 .2s-1 .4-1-2.8c0-3.5.3-4.2 2-4.2 1.6 0 2 .7 2 3.4zm12 0c0 2.5-.5 3.5-2 3.9-1.7.4-2 0-2-3.4 0-3.2.3-3.9 2-3.9 1.6 0 2 .7 2 3.4zm-27.7 7.4c.3.4.3 2.8 0 5.5-.5 4.4-.7 4.7-3.4 4.7-2.8 0-2.9-.1-2.9-5.5s0-5.5 2.9-5.5c1.7 0 3.2.3 3.4.8zm-9 6.9c.5 4.2.4 4.3-2.4 4.3-2.7 0-2.9-.3-2.9-3.9 0-3.3.4-4 2.3-4.3 1.2-.2 2.3-.4 2.3-.3.1 0 .4 1.9.7 4.2zm-7.3.8c0 4.4-.1 4.6-2.7 4.2-1.9-.2-2.8-.9-2.7-2 .1-1 .2-2.8.3-4.2.1-2 .6-2.5 2.6-2.5 2.3 0 2.5.4 2.5 4.5zm30.6 10.2c-.4 4.3-.9 7.9-1.1 8.2-.2.2-1.1.1-1.9-.2-1.1-.4-1.3-2-.9-6.9.6-8 .9-8.8 2.9-8.8 1.5 0 1.6.9 1 7.7zM276 100v6h-13.1l.3-5.3c.3-4.8.5-5.2 3.1-5.5 2.2-.3 2.7.1 2.8 2 .1 2.2.3 1.9 1.4-2 .3-.6 1.6-1.2 3-1.2 2.4 0 2.5.2 2.5 6zm8.5-5c.3.6.3 3-.1 5.5-.6 4.1-.9 4.5-3.4 4.5-2.6 0-2.7-.1-2.5-5.3.1-2.8.3-5.3.4-5.5.4-.7 5.1-.1 5.6.8zM79.9 105c.1 5.5-.9 6.3-2.9 2.4-1.1-2-1.2-2.7-.2-3.3.7-.4 1.2-1.2 1.1-1.7-.3-2 .1-3.5 1-3 .4.3.9 2.8 1 5.6zM56 115.4c.8.2-2.1.4-6.5.4s-6.9-.3-5.6-.7c2.2-.6 8.7-.4 12.1.3zm12-.4c0 .5-1.1 1-2.5 1s-2.5-.5-2.5-1c0-.6 1.1-1 2.5-1s2.5.4 2.5 1zm290.7 2.2c-.3.8-.6.5-.6-.6-.1-1.1.2-1.7.5-1.3.3.3.4 1.2.1 1.9zM284 117c0 .5-1.2 1-2.6 1-1.4 0-2.3-.4-1.9-1 .3-.6 1.5-1 2.6-1 1 0 1.9.4 1.9 1zm-231 7.7c0 1.2-.4 2.5-1 2.8-.6.4-1-1.1-1-3.7 0-3.1.3-3.9 1-2.8.5.8 1 2.5 1 3.7zm86-.2c0 .7.3 2.7.6 4.4.6 2.9.5 3.1-2.4 3.1-3 0-3.1 0-3.1-5.4s.1-5.5 2.5-4.4c1.3.6 2.4 1.7 2.4 2.3zm9 1c0 1.9-.4 3.5-.8 3.5-.5 0-.9-1.6-1-3.5-.1-1.9.3-3.5.8-3.5.6 0 1 1.6 1 3.5zm-16.3 3.2c-.3 1-.5.4-.5-1.2 0-1.7.2-2.4.5-1.8.2.7.2 2.1 0 3zm-6.7 3.8c0 1.9-2.1 3.3-4 2.8-2.7-.7-3.2-3-1.4-6.5l1.6-3.1 1.9 2.9c1 1.6 1.9 3.4 1.9 3.9zm16.7-3.3c-.3.8-.6.5-.6-.6-.1-1.1.2-1.7.5-1.3.3.3.4 1.2.1 1.9zM283 129c0 .5-.4 1-1 1-.5 0-1-.5-1-1 0-.6.5-1 1-1 .6 0 1 .4 1 1zm-151 3c0 .5-.9 1-2 1s-2-.5-2-1c0-.6.9-1 2-1s2 .4 2 1zm18-.6c0 .2-.7.6-1.5 1-.8.3-1.5.1-1.5-.4 0-.6.7-1 1.5-1s1.5.2 1.5.4zm-120 6.7c0 .6-.4.7-1 .4-.5-.3-1-1.1-1-1.6 0-.6.5-.7 1-.4.6.3 1 1.1 1 1.6zm74.5 0c.9 1.4.5 1.7-3.5 2.1-2.6.2-3.5-.1-3.8-1.5-.3-1.4.4-1.7 3.2-1.7 1.9 0 3.8.5 4.1 1.1zm52.2 4.1c-.3.7-.5.2-.5-1.2s.2-1.9.5-1.3c.2.7.2 1.9 0 2.5zm226.1-1c-.2 1.8-1 2.3-4 2.5-3.1.1-3.8-.1-3.8-1.7 0-1.4.9-2 3.8-2.3 2-.2 3.8-.4 4-.5.2-.1.2.8 0 2zm-244.4 9c4.8.7 7.4 1.8 4.3 1.8-.9 0-1.7.5-1.7 1.1 0 .6-.5.7-1.2.2-.7-.4-2.6-.8-4.3-.8-2.8 0-3-.3-3.2-4-.1-3.1 0-3.4.6-1.5.6 2.1 1.5 2.6 5.5 3.2zM359 147c0 .5-.2 1-.4 1-.3 0-.8-.5-1.1-1-.3-.6-.1-1 .4-1 .6 0 1.1.4 1.1 1zm-276.7.7c-1.3.2-3.3.2-4.5 0-1.3-.2-.3-.4 2.2-.4s3.5.2 2.3.4zm266.6 5c.1.7-.4 1.3-1 1.3s-.9-.7-.5-1.5c.4-1.1 0-1.4-1.7-1.2-1.2.2-1.7.2-1 0s1.5-1.4 1.9-2.6c.7-2.2.8-2.2 1.5.3.4 1.4.7 3.1.8 3.7zm2.6-4.8c.3.5.2 1.2-.3 1.5-.5.3-.9-.1-.9-.9 0-1.7.3-1.9 1.2-.6zm-332 1.1c.3.5.2 1-.4 1-.5 0-1.3-.5-1.6-1-.3-.6-.2-1 .4-1 .5 0 1.3.4 1.6 1zm32.5.9c0 1.3 5.5 3 7.9 2.4 2.8-.7 7.9 1.7 8.5 4.1.7 2.6.5 2.7-4.3 3.6-3.1.6-4.1.3-5.2-1.1-.9-1.3-1.7-1.5-3-.8-1 .5-2 .5-2.3.1-.3-.5-1.9-.8-3.6-.7-1.8.1-3-.3-3-1s-.7-1.8-1.5-2.5c-2.4-2-1.7-3 1.8-2.5 1.7.3 2.6.3 1.9-.1-.6-.3-1-1-.6-1.5.7-1.2 3.4-1.2 3.4 0zm310.2 4.1c-.2 2.7-.9 5-1.4 5-.6 0-.8-1.2-.4-3.1.3-1.7.6-4 .6-5 0-1.1.3-1.9.8-1.9.4 0 .5 2.2.4 5zm12.5-4.4c-.3.3-1.2.4-1.9.1-.8-.3-.5-.6.6-.6 1.1-.1 1.7.2 1.3.5zM341 152c0 .5-.5 1-1.1 1-.5 0-.7-.5-.4-1 .3-.6.8-1 1.1-1 .2 0 .4.4.4 1zm-208 2.4c0 .8-.4 1.8-1 2.1-.5.3-1-.3-1-1.4 0-1.2.5-2.1 1-2.1.6 0 1 .6 1 1.4zm11 1.6c0 .5-.2 1-.4 1-.3 0-.8-.5-1.1-1-.3-.6-.1-1 .4-1 .6 0 1.1.4 1.1 1zm122 4.2c0 1.2-1.3.9-3.2-.6-1-.7-1.5-1.6-1.2-1.9.7-.7 4.4 1.4 4.4 2.5zm-222-1.8c0 1.1-1.9 1.5-2.5.6-.3-.5.1-1 .9-1 .9 0 1.6.2 1.6.4zm305.5.6c.3.5.1 1-.4 1-.6 0-1.1-.5-1.1-1 0-.6.2-1 .4-1 .3 0 .8.4 1.1 1zM104 161.1c0 .5-.4.9-1 .9-.5 0-1-.7-1-1.6 0-.8.5-1.2 1-.9.6.3 1 1 1 1.6zm268.3-.4c-.7.2-1.9.2-2.5 0-.7-.3-.2-.5 1.2-.5s1.9.2 1.3.5zm-305.2 2.6c-1.3 1.3-2.6.3-1.6-1.2.3-.6 1.1-.8 1.7-.5.6.4.6 1-.1 1.7zm80.8.8c-1.9 1.2-3.9 1.1-3.9-.2 0-.5.5-.7 1.2-.3.8.5.9.2.5-1-.6-1.4-.4-1.5 1.5-.5 1.6.9 1.8 1.3.7 2zm114.1-1.6c.7.8.8 1.5.2 1.5-.5 0-1.5-.7-2.2-1.5-.7-.8-.8-1.5-.2-1.5.5 0 1.5.7 2.2 1.5zm101 1.5c0 .5-.7 1-1.6 1-.8 0-1.2-.5-.9-1 .3-.6 1-1 1.6-1 .5 0 .9.4.9 1zm-103.7 2.4c.4 1 0 1.2-1.4.9-2.2-.6-2.6-2.3-.5-2.3.8 0 1.6.6 1.9 1.4zm-2.2 4.4c-1.6.5-4.1-.5-4.1-1.7 0-.7 1-.6 2.6.1 1.5.7 2.1 1.4 1.5 1.6zM80.5 170c-.3.5-1.3 1-2.1 1s-1.4-.5-1.4-1c0-.6.9-1 2.1-1 1.1 0 1.7.4 1.4 1zm58.5.1c0 1.1-3.7 1.2-4.3.1-.3-.4.6-.8 1.9-.8 1.3-.1 2.4.2 2.4.7zm115.5 3.9c.3.6.3 1-.2 1-1.1-.1-4.3-2.6-4.3-3.4 0-.9 3.7 1.1 4.5 2.4zm-3.7 2.2c1.9 1.9 1.4 2.9-.8 1.6-2-1.3-2.7-2.8-1.2-2.8.4 0 1.3.5 2 1.2zm-112 4.3c-.3.3-.9-.2-1.2-1.2-.6-1.4-.5-1.5.5-.6.7.7 1 1.5.7 1.8zm111.2.9c0 .3-.8.3-1.7.1-1-.2-2.2-.4-2.6-.4-.5-.1-.5-.6-.2-1.1.6-.9 4.5.4 4.5 1.4zm-3 4.7c0 .6-.4.7-1 .4-.5-.3-1-1.1-1-1.6 0-.6.5-.7 1-.4.6.3 1 1.1 1 1.6zm-4.2 7.4c1.3-.5 1.4-.3.6.5-2.1 2.1-4.9.7-5.2-2.5l-.2-3 1.6 2.8c1.1 2 2 2.7 3.2 2.2zM22.3 233.7c-1.3.2-3.5.2-5 0-1.6-.2-.5-.4 2.2-.4 2.8 0 4 .2 2.8.4zm67.6 2.9c1.8.3 3.1.6 3 .8-.5.3-44.6-1.3-47.9-1.8-1.4-.2-6.3-.4-11-.5-4.7-.2-7.7-.5-6.8-.9 1.8-.7 56.7 1.4 62.7 2.4zm71.4 2.9c7.9.4 13.7 1.2 13.7 1.7 0 .7-3.9.8-10.7.4-6-.3-18.9-1.1-28.8-1.6-26-1.4-35.5-2.2-35.9-2.9-.4-.5 27.4.5 61.7 2.4zM82 256.1c0 .5-.1.9-.2 1-3.8.7-15 .8-16.8 0-2-.8-1.3-1 4.3-.9 3.7 0 6.9-.1 7.1-.3.9-.8 5.6-.6 5.6.2zm8.5-.1c-.3.5-2.2 1-4.1 1-1.9 0-3.4-.5-3.4-1 0-.6 1.8-1 4.1-1 2.4 0 3.8.4 3.4 1zm-28.8.6c-.3.3-1.2.4-1.9.1-.8-.3-.5-.6.6-.6 1.1-.1 1.7.2 1.3.5zm32.6 3.1c-.7.2-1.9.2-2.5 0-.7-.3-.2-.5 1.2-.5s1.9.2 1.3.5zm54.2 3.3c.3.5.1 1-.4 1-.6 0-1.1-.5-1.1-1 0-.6.2-1 .4-1 .3 0 .8.4 1.1 1zM79 356.1c0 .6-.4.7-1 .4-.5-.3-1-1.1-1-1.6 0-.6.5-.7 1-.4.6.3 1 1.1 1 1.6zm136-1.7c0 .3-.4.8-1 1.1-.5.3-1 .1-1-.4 0-.6.5-1.1 1-1.1.6 0 1 .2 1 .4z"/><path d="M155.4 5.9c.3.5.7 2.9.7 5.5.3 6.5 1.9 5.7 1.9-.9 0-4.3-.3-5.5-1.6-5.5-.8 0-1.3.4-1 .9zM173.4 8c-4.7 2.8-12.2 11.4-11.6 13.4.1.4-.5 1.4-1.5 2.1-1 .7-1.5 1.7-1 2.1.4.4.7.2.7-.5s.5-.9 1-.6c.6.3 2.2-.8 3.6-2.5s3.6-3.5 4.8-4.2l2.1-1.1-2.2 2.4c-1.2 1.3-2.7 3.7-3.3 5.4l-1.1 2.9 2.2-1.9 2.2-2-1.8 2.7c-1.3 2.1-1.4 2.8-.4 2.8.7 0 2.4-1.2 3.7-2.8l2.4-2.7-1.6 2.7c-.9 1.5-1.6 2.9-1.6 3 0 .2 8.4.3 18.7.3 10.4 0 20.1.4 21.8.8 1.6.5 5.1 3.1 7.7 5.8 3 3.2 4.8 4.4 4.8 3.4 0-.9.5-1.3 1-1 .6.3 1 1.6 1 2.8.1 2 .2 2 1.3.6.9-1.2 1.5-1.3 2.3-.5 1 1 1.4 2 1.4 3.1 0 .3.9-.3 2-1.2 1.1-1 2-2.2 2-2.7s-2.1-2.9-4.6-5.3c-2.9-2.7-4-4.3-3-4.3 2.8 0 1.7-1.8-2.6-4.2-4.8-2.7-6.4-6.8-2.5-6.8 2 0 2-.2-.8-2-1.8-1.2-5.7-2.2-10-2.6-4.7-.5-6.3-.9-5-1.4 1.9-.7 1.9-.8-.5-1.8-1.4-.6-2-1.1-1.5-1.2.6 0-.6-.8-2.5-1.6-2.2-1-7-1.6-13.2-1.7-7.7-.1-9.4-.4-8.6-1.4 1.7-2.1-.3-1.5-5.8 1.7zm11.3.6c-.3.3-1.2.4-1.9.1-.8-.3-.5-.6.6-.6 1.1-.1 1.7.2 1.3.5zM145.8 7.7c-1 .2-1.8 1.3-1.8 2.4 0 1-.7 1.9-1.5 1.9s-1.5-.7-1.5-1.6c0-.8-.4-1.2-1-.9-.5.3-1 2.4-1 4.6V18l5.5-.2 5.5-.2v-5.3c0-5.4-.3-5.7-4.2-4.6zM238.8 18.7c.7.3 1.6.2 1.9-.1.4-.3-.2-.6-1.3-.5-1.1 0-1.4.3-.6.6zM149 24.1c0 .5.5.7 1 .4.6-.3 1-.8 1-1.1 0-.2-.4-.4-1-.4-.5 0-1 .5-1 1.1zM135 26c0 1.1.2 2 .4 2s.6-.9.9-2c.3-1.1.1-2-.4-2s-.9.9-.9 2zM140.4 25.4c-.3.7-.4 3.3-.2 5.7.3 4.3.4 4.2.8-1.4.5-5.8.4-6.8-.6-4.3zM129.6 30.7c.9 7.8 1.4 7.9 1.4.5 0-3.8-.4-6.2-1.1-6.2-.7 0-.8 1.9-.3 5.7zM135.3 32.5c0 2.2.2 3 .4 1.7.2-1.2.2-3 0-4-.3-.9-.5.1-.4 2.3zM92 32.9c0 .6-.9 1.1-2 1.1-1.7 0-1.9.4-1.4 2.7.4 1.6.7 2.8.8 2.8.1 0 1.3-1.2 2.7-2.7 2.3-2.3 2.5-2.9 1.3-3.9-1-.8-1.4-.8-1.4 0zM96 34.9c0 .5.5 1.3 1 1.6.6.3 1 .2 1-.4 0-.5-.4-1.3-1-1.6-.5-.3-1-.2-1 .4zM235.9 41.2c.4 2.8.6 2.9.9.9.2-1.3 0-2.7-.5-3.2-.6-.6-.7.3-.4 2.3zM89 42.9c0 1.2.5 2.1 1 2.1.6 0 1-.6 1-1.4 0-.8-.4-1.8-1-2.1-.5-.3-1 .3-1 1.4zM129.9 41.4c-.8.8.3 12.6 1.1 12.6.5 0 .8-2.9.7-6.5-.2-5.9-.6-7.3-1.8-6.1zM135 47.5c0 5.2.3 6.5 1.5 6.5 1.6 0 1.7-4.1.2-5.6-1.1-1.1-.8-4.9.5-6.2.9-.9.8-1.2-.5-1.2-1.4 0-1.7 1-1.7 6.5zM140.6 42.5c-.3.8-.1 1.5.4 1.5.6 0 1-.7 1-1.5s-.2-1.5-.4-1.5-.6.7-1 1.5zM79 43.5c0 1.6 1.6 2 2.4.6.3-.5-.1-1.1-.9-1.5-.9-.3-1.5 0-1.5.9zM97 42.9c0 .6.5 1.3 1 1.6.6.3 1-.1 1-.9 0-.9-.4-1.6-1-1.6-.5 0-1 .4-1 .9zM239.1 46.6c0 1.1.3 1.4.6.6.3-.7.2-1.6-.1-1.9-.3-.4-.6.2-.5 1.3zM77.5 51.9c-.3.5-.1 1.2.5 1.6.5.3 1-.1 1-.9 0-1.8-.6-2.1-1.5-.7zM327 53.1c0 1.1.4 1.8 1 1.4.5-.3.7-1.2.3-2-.7-2.1-1.3-1.9-1.3.6zM72.4 56.5c.1 3.9.5 5.1 1.9 5.3.9.2 1.7-.1 1.7-.7s-.6-1.1-1.4-1.1c-1 0-1.6-1.4-1.9-4.3-.4-3.8-.4-3.7-.3.8zM125.5 56c.3.5.8 1 1.1 1 .2 0 .4-.5.4-1 0-.6-.5-1-1.1-1-.5 0-.7.4-.4 1zM78.1 58.8c-.1 2.6.3 3.3 1.6 3 2.1-.4 3-2.8 1-2.8-.9 0-1.8-.8-2-1.8-.3-.9-.5-.2-.6 1.6zM90.1 58.2c-.1 2 .4 2.8 1.5 2.8 1.2 0 1.4-.4.7-1.3-.6-.6-1.3-1.9-1.6-2.7-.3-.9-.6-.3-.6 1.2zM96 58.5c0 1.4.4 2.5.9 2.5.4 0 .6-1.1.3-2.5-.2-1.4-.6-2.5-.8-2.5-.2 0-.4 1.1-.4 2.5zM61 59.5c0 1.4.4 2.5.9 2.5.4 0 .6-1.1.3-2.5-.2-1.4-.6-2.5-.8-2.5-.2 0-.4 1.1-.4 2.5zM335.6 58c-1.9.6-1.9.7-.1 1.3 2 .8 2.9.4 2.4-1.1-.2-.5-1.3-.6-2.3-.2zM56.7 60.7c-.4.3-.7 1.1-.7 1.7 0 .6.5.5 1.2-.2.6-.6.9-1.4.7-1.7-.3-.3-.9-.2-1.2.2zM80 64c0 .5.5 1 1 1 .6 0 1-.5 1-1 0-.6-.4-1-1-1-.5 0-1 .4-1 1zM132.7 64.8c-.9 1-2 3.3-2.3 5l-.6 3.2h6.1c3.3 0 6.1-.5 6.2-1 .1-.6.1-2.1.1-3.5 0-3.9-.1-4.5-1.1-4.5-.4 0-.7 1.6-.4 3.5.3 2.9 0 3.5-1.6 3.5-2.6 0-3.6-5-1.3-6.8 1.4-1 1.3-1.2-1-1.2-1.3 0-3.2.8-4.1 1.8zm1.4 6.5c-1.3 1.3-1.5-.1-.4-3 .7-1.7.8-1.7 1.1.1.2 1-.1 2.3-.7 2.9zM327.1 66.6c-1.8 2.1-.6 3 1.4 1.1.8-.9 1.5-1.8 1.5-2.1 0-1.1-1.5-.5-2.9 1zM337 66c0 .5-.7 1-1.5 1s-1.5.4-1.5 1c0 1.3 1.1 1.2 3.3-.4 1.9-1.5 2.2-2.6.7-2.6-.5 0-1 .4-1 1zM342.5 68c.2 1.4.5 2.8.5 3.2 0 .5.5.8 1.1.8.6 0 .9-.7.5-1.5-.3-.8-.1-1.5.5-1.5s.7-.5.4-1c-.4-.6-1-.8-1.5-.5-.4.3-1.1-.1-1.4-.7-.4-.7-.4-.2-.1 1.2zM55.5 69c-.3.5-.1 1 .4 1 .6 0 1.1-.5 1.1-1 0-.6-.2-1-.4-1-.3 0-.8.4-1.1 1zM61.1 70.1c-.2 4.7 1 8.8 2.5 8.2 1.8-.7 1.8-2.7 0-4.3-.8-.6-1.7-2.4-1.9-3.8l-.4-2.7-.2 2.6zM78.4 70c.3 1.4.6 3.7.6 5.2 0 1.6.4 2.8.9 2.8 1.1 0 .3-6.8-1.1-9-.7-1.1-.8-.8-.4 1zM183 71.7c-2.5.8-5.3 2.3-6.2 3.3-1.6 1.7-1.6 1.9.1 3.4 1 .9 2.5 1.6 3.4 1.6.9 0 1.9.4 2.2 1 .3.5 0 1-.8 1-2.2 0-3.9 2.7-3.2 4.9.3 1.1.9 2 1.3 1.9 1.8-.5 5 1.5 5.5 3.3.4 1.6 1.3 1.9 4.7 1.7 2.3-.1 4.4-.6 4.6-1 .5-.8-1-1.2-3.3-.9-.7.1-1.3-.2-1.3-.6 0-1.3 5.1-3.1 11-3.8 3-.4 6.2-1.2 7.1-1.8 1.6-1 1.5-1.2-.4-2.8-2.3-1.7-7.2-2.8-15-3.1-2.8-.1-4.6-.6-4.4-1.2.5-1.5 5.2-3.7 8.5-3.9 3.5-.3 5.3-1.8 4-3.5-1.5-1.7-12.3-1.5-17.8.5zM243.9 72.1c-2.3 4.4-.2 5.3 2.3 1.1 1.5-2.5 1.5-2.9.2-2.9-.8 0-1.9.8-2.5 1.8zM73.3 74.5c0 2.2.2 3 .4 1.7.2-1.2.2-3 0-4-.3-.9-.5.1-.4 2.3zM97 74c0 2.1.5 3 1.6 3 1.4 0 1.4-.3.3-1.6-1-1.2-1-1.7 0-2.3 1-.6.9-1-.3-1.4-1.2-.5-1.6 0-1.6 2.3zM56 74.7c0 3.4.9 4.6 2.8 3.4.8-.5.6-1.5-.8-3.6l-2-3v3.2zM91 74.5c0 1.4.5 2.5 1.1 2.5.5 0 .7-.5.3-1.1-.3-.6-.1-1.5.6-1.9.8-.5.7-.9-.4-1.3-1.2-.5-1.6 0-1.6 1.8zM252.7 73.2c1.3.6 2.5 2 2.9 3 .3 1.1.8 1.7 1 1.5 1.2-1.1-2.1-5.7-4-5.6-2.1 0-2 .1.1 1.1zM334.5 73c.3.5 1 1 1.6 1 .5 0 .9-.5.9-1 0-.6-.7-1-1.6-1-.8 0-1.2.4-.9 1zM44.3 75.6c-.3.8-.1 2 .5 2.6 1.5 1.5 4.3.2 3.6-1.6-.8-2.1-3.4-2.8-4.1-1zM326 76c0 1.1.4 2 .9 2s.7-.9.4-2c-.3-1.1-.7-2-.9-2-.2 0-.4.9-.4 2zM130.4 79.8c.3 2 .5 5.6.6 7.9 0 2.8.5 4.3 1.3 4.3 1.9 0 1-14.7-1-15.4-1.2-.5-1.4.1-.9 3.2zM137.8 84.5c.3 5.7.7 7.5 1.8 7.5 1.6 0 1.7-1.9.8-9.8-1-8.2-3-6.5-2.6 2.3zM92.5 79c-.3.5-.1 1 .4 1 .6 0 1.1-.5 1.1-1 0-.6-.2-1-.4-1-.3 0-.8.4-1.1 1zM98 79c0 1.3 1.8 2.2 2.4 1.1.3-.5-.1-1.1-.9-1.5-.8-.3-1.5-.1-1.5.4zM74 80c0 .5.4 1 .9 1 .6 0 1.3-.5 1.6-1 .3-.6-.1-1-.9-1-.9 0-1.6.4-1.6 1zM79.5 80c.3.5 1 1 1.6 1 .5 0 .9-.5.9-1 0-.6-.7-1-1.6-1-.8 0-1.2.4-.9 1zM150 79.7c-2 .8-3 2.3-3 4.7 0 1.6.6 1.8 4.5 1.3 5.6-.6 6.1-1 4.7-4.2-1.1-2.4-3.1-3-6.2-1.8zM247 81.1c0 1.1.5 1.7 1 1.4.6-.3 1-1.3 1-2.1s-.4-1.4-1-1.4c-.5 0-1 .9-1 2.1zM40.4 80.8c.7 1.2 7.6 1.3 7.6.2 0-.6-1.8-1-4.1-1-2.2 0-3.8.4-3.5.8zM56.5 81c.4.6 1.1.8 1.6.5 1.4-.9 1.1-1.5-.7-1.5-.8 0-1.2.5-.9 1zM328 81c0 .5.5 1 1.1 1 .5 0 .7-.5.4-1-.3-.6-.8-1-1.1-1-.2 0-.4.4-.4 1zM91.1 84.6c0 1.1.3 1.4.6.6.3-.7.2-1.6-.1-1.9-.3-.4-.6.2-.5 1.3zM97.1 84.6c0 1.1.3 1.4.6.6.3-.7.2-1.6-.1-1.9-.3-.4-.6.2-.5 1.3zM324.5 84.1c-.4.6-.5 1.2-.2 1.5.2.3.7-.2 1-1.1.7-1.7.1-2-.8-.4zM330.5 84c.3.5.8 1 1.1 1 .2 0 .4-.5.4-1 0-.6-.5-1-1.1-1-.5 0-.7.4-.4 1zM40.1 88.3c-.1 3.2-.6 4.9-1.6 5.3-4.3 1.7.7 3.6 7.1 2.7 4.1-.5 4.2-.6 4.2-4.7.1-2.8-.5-4.6-1.8-5.8-2.5-2.4-3-2.3-3 .6 0 1.9-.4 2.3-1.9 1.9-1.1-.3-2.2-1.5-2.4-2.7-.2-1.1-.5.1-.6 2.7zM56.5 89.7l.2 5.8 5.3.3c5.2.3 5.2.3 4.6-2.4-.4-1.4-1.4-3.3-2.1-4.1-.8-.8-1.5-2.4-1.5-3.6 0-1.7-.2-1.9-.9-.7-.6.8-.7 1.8-.4 2.3.7 1.1-1.7 2.8-2.9 2.1-.4-.3-.8-1.6-.8-3 0-1.3-.4-2.4-.9-2.4s-.8 2.6-.6 5.7zm5.9 3.4c-.3.5-1 .7-1.5.3-.5-.3-.7-1-.3-1.5.3-.5 1-.7 1.5-.3.5.3.7 1 .3 1.5zM245 88.9c0 3.2 1.8 5.1 3 3.2.4-.7 1.5-1.1 2.6-.9 1.1.2 2-.4 2.2-1.5.2-1.2-.3-1.7-1.7-1.7-1.1 0-2.3-.5-2.6-1-1.3-2.2-3.5-1-3.5 1.9zM91.8 90.5c.2 1.4 1.1 2.5 1.8 2.5 1.9 0 1.8-3.6-.2-4.4-2.2-.8-2.2-.9-1.6 1.9zM97.5 90.7c.2 1.6.4 3.4.4 4 .1.7.8 1.3 1.6 1.3 1.8 0 2-1.6.3-2.3-1-.4-1-.6-.1-.6 1-.1 1-.7.1-2.6-1.5-3.3-2.8-3.2-2.3.2zM152.6 90.5c-1.5 1.4-2.6 3.5-2.6 5.1 0 2.5.2 2.6 3.8 1.8 2-.4 4.9-.7 6.3-.6 5.6.2 7.3-5.9 2.2-7.9-4-1.5-6.9-1-9.7 1.6zm4.4 1.2c-.8.3-2.4 1.3-3.5 2.2-2 1.6-2 1.6-.1-.7 1.1-1.2 2.6-2.2 3.5-2.1 1.4 0 1.4.1.1.6zM30.7 93.7C29.4 94.9 30 96 32 96c1.3 0 1.8-.5 1.4-1.5-.7-1.6-1.7-1.9-2.7-.8zM91 95c0 .5.6 1 1.4 1 .8 0 1.8-.5 2.1-1 .3-.6-.3-1-1.4-1-1.2 0-2.1.4-2.1 1zM244.4 97.5c-.3 1.4-.3 2.9.1 3.3.8.8 3.7-2.8 3.2-4.2-.7-2.1-2.7-1.6-3.3.9zM91 99.5c0 1.7.2 1.8 2.4.9 2.3-.9 2-2.4-.4-2.4-1.1 0-2 .7-2 1.5zM97 99.5c0 1.6.9 1.9 3.4.9 2.5-.9 1.9-2.4-.9-2.4-1.6 0-2.5.6-2.5 1.5zM26.5 101c-.3.5-.1 1 .4 1 .6 0 1.1-.5 1.1-1 0-.6-.2-1-.4-1-.3 0-.8.4-1.1 1zM185 110.7c0 3.1-3.5 5.7-6.8 5-3.6-.7-6.8 1.3-5.9 3.7.4.9 1.3 1.6 2.1 1.6 3.8 0 13.6-6.1 13.6-8.5 0-.7-.7-1.8-1.5-2.5-1.2-1-1.5-.9-1.5.7zM340.5 110c-.3.5-.2 1 .4 1 .5 0 1.3-.5 1.6-1 .3-.6.2-1-.4-1-.5 0-1.3.4-1.6 1zM321 113c0 .5.5 1 1 1 .6 0 1-.5 1-1 0-.6-.4-1-1-1-.5 0-1 .4-1 1zM321.7 117.7c-.8 1.3.4 6.3 1.5 6.3.6 0 .8-.6.5-1.4-.3-.8-.1-1.7.6-1.9.9-.3.7-1-.4-2.2-.9-.9-1.9-1.3-2.2-.8zM311.6 118.8c-.3.6.3 1.2 1.5 1.5 1.2.3 1.9.1 1.6-.6-.5-1.5-2.4-2-3.1-.9zM316 119c0 .5.4 1 .9 1 .6 0 1.3-.5 1.6-1 .3-.6-.1-1-.9-1-.9 0-1.6.4-1.6 1zM317.6 120.9c-.4.5-.2 1.2.3 1.5.5.4 1.2.2 1.5-.3.4-.5.2-1.2-.3-1.5-.5-.4-1.2-.2-1.5.3zM327.1 123.9c-.8 1.3-.7 2.2.2 2.9.9.8 1.2.3 1.2-1.9 0-3.4-.1-3.5-1.4-1zM330 122.8c0 .7.7 2 1.5 2.8 1.9 2 2 .4 0-2.2-.9-1.2-1.4-1.4-1.5-.6zM175.8 130.9c-1.4 1.2-2.9 2.1-3.3 2.1-1.5 0-7.5 3.3-7.5 4.1 0 1.3 1.7 1.1 3.2-.5.9-.8 4.4-1.5 9.2-1.8 7.4-.3 7.6-.3 4.7 1.1-1.7.8-3.1 1.8-3.1 2.2 0 .9 4.7-.4 8-2.1 3.9-2.1 7.6-2.8 9.3-1.8 1.1.6 1.7.5 1.7-.1 0-2.1-4.7-3.9-12-4.6-6.7-.6-7.9-.4-10.2 1.4zM316.7 135.7c-.4.3-.7 1.1-.7 1.7 0 .6.5.5 1.2-.2.6-.6.9-1.4.7-1.7-.3-.3-.9-.2-1.2.2zM213.5 138c-.3.5-.1 1 .4 1 .6 0 1.1-.5 1.1-1 0-.6-.2-1-.4-1-.3 0-.8.4-1.1 1zM317.7 138.7c-.4.3-.7 1.1-.7 1.7 0 .6.5.5 1.2-.2.6-.6.9-1.4.7-1.7-.3-.3-.9-.2-1.2.2zM339.1 139.6c0 1.1.3 1.4.6.6.3-.7.2-1.6-.1-1.9-.3-.4-.6.2-.5 1.3zM346.5 140c.3.5.8 1 1.1 1 .2 0 .4-.5.4-1 0-.6-.5-1-1.1-1-.5 0-.7.4-.4 1zM235 141.6c0 .8.5 1.2 1 .9.6-.3 1-1 1-1.6 0-.5-.4-.9-1-.9-.5 0-1 .7-1 1.6zM321 141.6c0 .8.5 1.2 1 .9.6-.3 1-1 1-1.6 0-.5-.4-.9-1-.9-.5 0-1 .7-1 1.6zM343 142c0 .5.5 1 1.1 1 .5 0 .7-.5.4-1-.3-.6-.8-1-1.1-1-.2 0-.4.4-.4 1zM338.5 142.9c-.3.5-.1 1.2.5 1.6.6.4.7 1.1.4 1.7-.4.7-.2.8.5.4.8-.6.9-1.2.2-2-.6-.7-.8-1.6-.4-1.9.3-.4.4-.7 0-.7-.3 0-.8.4-1.2.9zM334 145c0 .5.5 1 1 1 .6 0 1-.5 1-1 0-.6-.4-1-1-1-.5 0-1 .4-1 1zM333.4 148.6c.3.9.6 1.8.6 2 0 1.3 1.8.1 2.2-1.4.4-1.2-.1-1.8-1.4-1.9-1.4-.1-1.8.3-1.4 1.3zM333 154c0 .5.5 1 1 1 .6 0 1-.5 1-1 0-.6-.4-1-1-1-.5 0-1 .4-1 1zM164 160.9c0 .6.5 1.3 1 1.6.6.3 1-.1 1-.9 0-.9-.4-1.6-1-1.6-.5 0-1 .4-1 .9zM382.1 186l-5.3 5.5.6 7.4c.5 5.9.3 7.8-.9 9.1-1.3 1.5-1.3 2 .1 4.8.8 1.8 1.9 3 2.3 2.7.5-.2 1.8.6 3.1 2 2.2 2.3 2.2 2.6 1.1 12-.6 5.3-.9 10.1-.6 10.6.8 1.2 9.7.1 11.2-1.4.6-.7 1.5-5.1 1.8-10l.7-8.7-3.2-.6c-2-.5-2.7-1-1.9-1.5 1.4-.8 1.9-3.8 2.1-11.4 0-3.6.3-4.5.9-3 .6 1.6.8 1.2.7-1.5 0-1.9.2-5.3.6-7.5.4-2.9.4-3.4-.3-2-.8 1.6-1 1.2-1-2.1-.1-4.6 1.8-7.1 3.7-5.2.9.9 1.2.8 1.2-.3s-1.3-1.6-4.7-1.8c-2.7-.1-5.2-.7-5.8-1.4-.7-.9-2.4.2-6.4 4.3zm-.6 10.7c-1 6.6-1.7 4.6-.8-2.3.4-3.2.9-5.1 1.1-4 .2 1 .1 3.8-.3 6.3zM1.1 183.1c0 1.3.3 1.9.5 1.2.4-.8 1.3-.9 2.7-.4 1.2.4 4.1.7 6.5.7 2.3-.1 4.2.3 4.2.8s.6.3 1.4-.3c.7-.6 2-.9 2.9-.5.8.3 1.8.1 2.2-.5.3-.6 1.6-.9 2.9-.5 1.2.3 4.4.6 7.1.7 2.8.1 5.3.6 5.7 1.2.5.6.8.5.8-.3 0-.9 1.2-1.3 3.8-1.2 5.5.3 9.6.1 9.1-.5-.8-.7-10.2-1.4-30.6-2.1L1 180.8l.1 2.3zM53 183.7c.8.3 2.4 1.3 3.4 2.2 1.1.9 1.6 1.1 1.3.4-.4-.6-.3-1.4.3-1.8.5-.3 1-.2 1 .3s1.7.6 3.8.3c2-.4 5.5-.6 7.7-.5 2.2.1 8 .3 13 .4 6.9.2 9.2.6 10.2 1.9 1.1 1.4 1.2 1.4 1.3-.3 0-2 0-2 1.5 0 1.4 1.9 1.4 1.9 1.5 0 0-2 0-2 1.5 0 1.3 1.8 1.4 1.8 1.5.1 0-1 .4-1.5 1-1.2.6.3 1 .2 1-.4 0-.5-3.5-1.1-7.7-1.3-13.6-.6-43.9-.7-42.3-.1zM107.8 185.7c.7.3 1.6.2 1.9-.1.4-.3-.2-.6-1.3-.5-1.1 0-1.4.3-.6.6zM127.1 186.6c0 1.1.3 1.4.6.6.3-.7.2-1.6-.1-1.9-.3-.4-.6.2-.5 1.3zM133.1 186.7c0 1 .4 2.7.9 3.8.7 1.7.9 1.5.9-1.2.1-1.7-.3-3.5-.9-3.8-.5-.3-1 .2-.9 1.2zM143 186.4c0 .9.5 1.6 1 1.6.6 0 1-.4 1-.9 0-.6-.4-1.3-1-1.6-.5-.3-1 .1-1 .9zM137 187.5c0 .8.5 1.5 1 1.5.6 0 1-.7 1-1.5s-.4-1.5-1-1.5c-.5 0-1 .7-1 1.5zM178.3 186.7c2 .2 5.4.2 7.5 0 2-.2.3-.4-3.8-.4s-5.8.2-3.7.4z"/><path d="M397.3 198.6c-1 10.6-.7 13.4 1.6 12 .7-.5 1.1-4.3 1-9.9-.1-13.7-1.3-14.7-2.6-2.1zM371 195.7c-2 2.6-2 2.8-.4 4 2.7 2 3.9 1.1 4.2-3 .4-4.4-.9-4.7-3.8-1zM0 195.3c0 2.5 3.6 2.9 23.5 2.7 21.6-.2 42.4.9 38.5 2.1-1.8.5-.9.8 3.5.9 3.3.1 7.4.1 9 0 3.7-.3 18.7-.4 27.9-.2 6.5.2 6.9.3 5 1.8-1.7 1.4-1.7 1.5-.1 1 1-.3 3-.6 4.3-.6 1.5 0 2.3-.4 1.9-1-.4-.6-1.1-.8-1.6-.4-.6.3-1.8-.1-2.8-1-1.3-1.2-5-1.9-12.7-2.5-6-.5-11.7-1.2-12.6-1.6-1.2-.4-1.8-.3-1.8.5 0 .9-1.8 1-6.7.6-14.1-1.2-22.2-1.7-36.8-2.1-8.2-.2-20.3-.7-26.7-1.1-10.2-.6-11.8-.4-11.8.9z"/><path d="M29.5 201.1c-3.6 2.2-3 2.4 1.5.5 1.8-.7 2.9-1.6 2.4-1.8-.5-.3-2.2.3-3.9 1.3zM53.1 215.7c0 1.8-.5 3.3-1.1 3.3-.5 0-1 .7-1 1.7 0 .9.3 1.3.7 1 .3-.4 1.1-.3 1.8.3.8.6 1-.1.7-2.8-.5-5.7-1-7.1-1.1-3.5zM28 214.9c0 .5.5 1.3 1 1.6.6.3 1 .2 1-.4 0-.5-.4-1.3-1-1.6-.5-.3-1-.2-1 .4zM17 216.6c0 1.1-.6 1.5-1.8 1.2-1-.3-2.7.1-3.7.8-1 .8-1.4 1.4-.7 1.4.6 0 .9.7.6 1.5-.4 1 0 1.5 1.1 1.5s1.5-.5 1.2-1.5c-.5-1.1 0-1.3 2.4-.8 3.3.6 4.9-.7 4.9-4 0-1-.8-1.7-2-1.7s-2 .7-2 1.6zM2.3 217.7c-2.4.9-1.3 2.2 1.7 2 1.6-.1 2.8-.7 2.7-1.2-.4-1.2-2.7-1.6-4.4-.8zM22.6 219c-1.5.5-1.6.9-.7 1.4.7.5 1.8.3 2.4-.3 1.4-1.4.6-2-1.7-1.1zM39 219.1c0 1.5 1.9 2.9 4 2.9.4 0 1-.9 1.3-2 .6-2.3-.3-2.6-2.1-.8-1 1-1.5 1-2.2-.2-.8-1.3-1-1.3-1 .1zM26 220c0 .5.7 1 1.5 1s1.5-.5 1.5-1c0-.6-.7-1-1.5-1s-1.5.4-1.5 1zM30.7 220.1c.7.7 1.5 1 1.8.7.3-.3-.2-.9-1.2-1.2-1.4-.6-1.5-.5-.6.5zM34 220c0 .5 1 1 2.3 1 1.8 0 1.9-.2.7-1-1.9-1.3-3-1.3-3 0zM56.5 220c-.4.6 1.6 1 5.2.9 4.4-.1 5.2-.3 3.3-.9-3.6-1.2-7.8-1.2-8.5 0zM69.3 223.7c.9.2 2.5.2 3.5 0 .9-.3.1-.5-1.8-.5-1.9 0-2.7.2-1.7.5zM112.8 223.7c.7.3 1.6.2 1.9-.1.4-.3-.2-.6-1.3-.5-1.1 0-1.4.3-.6.6zM55.8 224.7c.7.3 1.6.2 1.9-.1.4-.3-.2-.6-1.3-.5-1.1 0-1.4.3-.6.6zM125.3 224.7c1.5.2 3.7.2 5 0 1.2-.2 0-.4-2.8-.4-2.7 0-3.8.2-2.2.4zM149.5 226.1c-.4.5.8.9 2.6.9 3.5 0 3.5-.8.1-1.5-1.2-.2-2.4 0-2.7.6zM58.7 315.7c-.4 2.1-.9 5.2-1.3 6.9-.4 2.2-.2 3.3.8 3.7 1.2.4 1.5-.5 1.6-3.8 0-2.4.3-5.8.7-7.4.4-1.8.2-3.1-.3-3.1s-1.2 1.7-1.5 3.7zM59.7 330.7c-.3 1.6-.3 3-.1 3.3.7.7 2.4-2.3 2.4-4.3 0-2.7-1.7-2-2.3 1zM56 333.5c-1 1.2-1 1.5.4 1.5.9 0 1.6-.7 1.6-1.5s-.2-1.5-.4-1.5-.9.7-1.6 1.5zM101 346c0 .5.5 1 1 1 .6 0 1-.5 1-1 0-.6-.4-1-1-1-.5 0-1 .4-1 1zM208 355c0 .5.4 1 .9 1 .6 0 1.3-.5 1.6-1 .3-.6-.1-1-.9-1-.9 0-1.6.4-1.6 1zM201.8 355.8c-3.2.6-1.9 2.2 1.8 2.2 2 0 3.3.4 2.9 1-.3.6.1.7.9.4.9-.3 1.6-.1 1.6.5s.5 1.1 1 1.1c1.8 0 1-2.2-1-2.7-1.1-.3-2-1.1-2-1.9 0-1.2-1.4-1.4-5.2-.6z"/><path d="M201.6 361.1c-1.8 1.7-3.7 2.3-7.3 2.2-2.2-.1-1.4.8 1.6 1.8 2 .7 2.8 1.5 2.4 2.5-.3.8 0 1.4.6 1.4s1.1-1.1 1.1-2.5.4-2.5.9-2.5c1.2 0 4.1-2.9 4.1-4.1 0-1.4-1.3-1-3.4 1.2z"/><path d="M202.2 365.9c.3.8.8 1.6 1.4 1.8 1.4.4 3.9-1.5 3.1-2.4-.5-.4-1.2-.1-1.8.7-.8 1.3-1 1.3-2 0-.9-1.2-1-1.2-.7-.1zM208 366c0 .5.5 1 1.1 1 .5 0 .7-.5.4-1-.3-.6-.8-1-1.1-1-.2 0-.4.4-.4 1zM202.5 370c.3.5.8 1 1.1 1 .2 0 .4-.5.4-1 0-.6-.5-1-1.1-1-.5 0-.7.4-.4 1zM199.1 372.7c0 .5.4 1.7.8 2.7.7 1.8.8 1.8 1.4.3.3-.9.2-1.7-.4-1.7-.6 0-.7-.5-.4-1 .3-.6.1-1-.4-1-.6 0-1.1.3-1 .7zM204.6 374.5c.4.8.8 1.5 1 1.5.2 0 .4-.7.4-1.5s-.4-1.5-1-1.5c-.5 0-.7.7-.4 1.5zM184.4 377.8c.5 2.2.4 2.4-.4.9-.6-.9-1.5-1.7-2-1.7s-.6.8-.3 1.7c.6 1.5.4 1.6-.8.6-1.1-.9-1.8-.8-3.2.2-1.2.9-1.5 1.5-.7 2 .7.4.9 1.9.5 3.5-1.2 5.4-1.4 9-.5 9 .4 0 1-.6 1.2-1.2.3-.9.9-.8 2.2.5 1 .9 2.1 1.7 2.5 1.7 1.3 0 3.1-2.4 3.1-3.9-.1-1.2-.3-1.2-1.2.3-1 1.8-1.1 1.8-2.4-.5-.7-1.3-1.3-1.8-1.4-1.2 0 1.5-3 1.8-3 .4 0-1.1 2.5-2.1 5.4-2.1 2.1 0 5.6-2.7 5.6-4.3 0-.4-1.2-.7-2.7-.8-2.7 0-2.7-.1-.6-1.1 2.8-1.3 2.7-5.5 0-6.2-1.6-.4-1.8 0-1.3 2.2zm-.5 6.9c.2.2-.2.3-1 .3s-2-1-2.8-2.3l-1.4-2.2 2.4 2c1.3 1.1 2.6 2.1 2.8 2.2zM207.6 375.9c-.4.5-.2 1.2.3 1.5.5.4 1.2.2 1.5-.3.4-.5.2-1.2-.3-1.5-.5-.4-1.2-.2-1.5.3zM197.5 379c-1.1.5-1.4.9-.7.9.6.1 1.2.8 1.2 1.6s.4 1.5.9 1.5.8-1.1.7-2.5c0-1.4-.1-2.5-.1-2.4 0 0-.9.4-2 .9zM202.5 380c-.3.5.1 1 1 1s1.3-.5 1-1c-.3-.6-.8-1-1-1-.2 0-.7.4-1 1zM170.5 383c-1 1.1-2.2 2-2.7 2-.4 0-2.7.8-5.1 1.9-2.3 1-6.4 2.8-9.2 3.9l-4.9 2 3.9 1.1c9.5 2.5 12.4 2.9 12.9 1.7.3-.7.5-.7.5.1.1.7.6 1.3 1.1 1.3.7 0 .8-1.3.4-3.5-.5-3-.2-3.9 1.8-5.8 1.3-1.3 2.2-2.9 2-3.6-.3-.8 0-1.1.7-.7.6.4 1.1.1 1.1-.8 0-2.1-.3-2-2.5.4zM201 384c0 .5-.7 1-1.5 1s-1.5.5-1.5 1.1c0 .5.4.8.9.5.5-.4 1.2 0 1.4.6.4 1 .6 1 .6 0 .1-.6.8-1.2 1.6-1.2s1.5-.7 1.5-1.5-.7-1.5-1.5-1.5-1.5.4-1.5 1z"/><path d="M170.7 387.8c-2.7 2.8-3.6 6.2-1.7 6.2.6 0 1-1.1 1-2.4 0-1.6.7-2.7 2-3.1 1.1-.3 2-1.3 2-2.1 0-1.9-.2-1.8-3.3 1.4zM189.2 386.3c-.7.8-.9 1.7-.5 2 .3.4.2.7-.4.7-.6 0-.9.8-.6 1.8.2 1 1.1 1.9 1.8 1.9 1 0 1.1-.5.5-1.6-.5-.9-.4-2.3.2-3.4 1.2-2.3.5-3.2-1-1.4zM210 388c0 .5.5 1 1 1 .6 0 1-.5 1-1 0-.6-.4-1-1-1-.5 0-1 .4-1 1zM202.1 389.6c0 1.1.3 1.4.6.6.3-.7.2-1.6-.1-1.9-.3-.4-.6.2-.5 1.3zM197 390c0 .4.7 1.1 1.6 1.4 2.2.9 2.6.8 2.2-.6-.5-1.3-3.8-2-3.8-.8zM172.5 390.9c-.3.5-.1 1.2.5 1.6.5.3 1-.1 1-.9 0-1.8-.6-2.1-1.5-.7zM198 394.1c0 .4.6 1.9 1.4 3.3 1.1 2.2 1.5 2.4 2 1.1.3-.9.4-2.1 0-2.6-.3-.5 0-.9.5-.9.6 0 1.1-.4 1.1-1 0-.5-1.1-.9-2.5-.8-1.4.1-2.5.5-2.5.9zM179.2 396.5c.4 2.6 5.8 3.2 5.8.7 0-1.1-.8-1.8-2-1.8-1.1 0-2 .5-2 1.1 0 .5-.5.3-1.1-.5-.8-1.2-1-1.2-.7.5zM187 396.4c0 .9.5 1.6 1 1.6.6 0 1-.4 1-.9 0-.6-.4-1.3-1-1.6-.5-.3-1 .1-1 .9zM203.5 395.9c-.3.6-.3 1.1.2 1.1.4 0 .1.5-.7 1-1 .7-1.1 1-.2 1 .7 0 1.5-.7 1.9-1.5.7-1.9-.2-3.1-1.2-1.6zM206 396.1c0 .5.5.7 1 .4.6-.3 1-.8 1-1.1 0-.2-.4-.4-1-.4-.5 0-1 .5-1 1.1z"/></svg>